<mxfile host="app.diagrams.net" modified="2023-03-03T14:11:17.319Z" agent="5.0 (Macintosh; Intel Mac OS X 10_15_7) AppleWebKit/537.36 (KHTML, like Gecko) Chrome/110.0.0.0 Safari/537.36" etag="ASg0VMT5OEq-aYLPum6N" version="20.8.23" type="github">
  <diagram name="Page-1" id="0783ab3e-0a74-02c8-0abd-f7b4e66b4bec">
    <mxGraphModel dx="1687" dy="886" grid="0" gridSize="10" guides="1" tooltips="0" connect="1" arrows="1" fold="1" page="0" pageScale="1" pageWidth="850" pageHeight="1100" background="none" math="0" shadow="0">
      <root>
        <mxCell id="0" />
        <mxCell id="1" parent="0" />
        <mxCell id="1c1d494c118603dd-1" value="Вывод средств" style="swimlane;html=1;childLayout=stackLayout;startSize=20;rounded=0;shadow=0;comic=0;labelBackgroundColor=none;strokeWidth=1;fontFamily=Verdana;fontSize=12;align=center;" parent="1" vertex="1">
          <mxGeometry x="40" y="20" width="750" height="990" as="geometry" />
        </mxCell>
        <mxCell id="1c1d494c118603dd-2" value="Пользователь" style="swimlane;html=1;startSize=20;" parent="1c1d494c118603dd-1" vertex="1">
          <mxGeometry y="20" width="250" height="970" as="geometry">
            <mxRectangle y="20" width="40" height="970" as="alternateBounds" />
          </mxGeometry>
        </mxCell>
        <mxCell id="1c1d494c118603dd-3" value="Система" style="swimlane;html=1;startSize=20;" parent="1c1d494c118603dd-1" vertex="1">
          <mxGeometry x="250" y="20" width="250" height="970" as="geometry" />
        </mxCell>
        <mxCell id="1c1d494c118603dd-4" value="KYC сервис" style="swimlane;html=1;startSize=20;" parent="1c1d494c118603dd-1" vertex="1">
          <mxGeometry x="500" y="20" width="250" height="970" as="geometry" />
        </mxCell>
        <mxCell id="1c1d494c118603dd-27" style="edgeStyle=orthogonalEdgeStyle;rounded=0;html=1;labelBackgroundColor=none;startArrow=none;startFill=0;startSize=5;endArrow=classicThin;endFill=1;endSize=5;jettySize=auto;orthogonalLoop=1;strokeWidth=1;fontFamily=Verdana;fontSize=12" parent="1c1d494c118603dd-4" source="60571a20871a0731-4" edge="1">
          <mxGeometry relative="1" as="geometry">
            <mxPoint x="380" y="190" as="targetPoint" />
          </mxGeometry>
        </mxCell>
        <mxCell id="1c1d494c118603dd-22" value="Note" style="shape=note;whiteSpace=wrap;html=1;rounded=0;shadow=0;comic=0;labelBackgroundColor=none;strokeWidth=1;fontFamily=Verdana;fontSize=12;align=center;size=20;" parent="1" vertex="1">
          <mxGeometry x="1020" y="460" width="105" height="55" as="geometry" />
        </mxCell>
        <mxCell id="1c1d494c118603dd-51" style="edgeStyle=none;rounded=0;html=1;dashed=1;labelBackgroundColor=none;startArrow=none;startFill=0;startSize=5;endArrow=oval;endFill=0;endSize=5;jettySize=auto;orthogonalLoop=1;strokeWidth=1;fontFamily=Verdana;fontSize=12" parent="1" source="1c1d494c118603dd-22" edge="1">
          <mxGeometry relative="1" as="geometry">
            <mxPoint x="930" y="480" as="targetPoint" />
          </mxGeometry>
        </mxCell>
        <mxCell id="60571a20871a0731-5" value="" style="shape=mxgraph.bpmn.shape;html=1;verticalLabelPosition=bottom;labelBackgroundColor=#ffffff;verticalAlign=top;perimeter=ellipsePerimeter;outline=end;symbol=terminate;rounded=0;shadow=0;comic=0;strokeWidth=1;fontFamily=Verdana;fontSize=12;align=center;" parent="1" vertex="1">
          <mxGeometry x="1060" y="930" width="40" height="40" as="geometry" />
        </mxCell>
        <mxCell id="1c1d494c118603dd-45" style="edgeStyle=none;rounded=0;html=1;labelBackgroundColor=none;startArrow=none;startFill=0;startSize=5;endArrow=classicThin;endFill=1;endSize=5;jettySize=auto;orthogonalLoop=1;strokeWidth=1;fontFamily=Verdana;fontSize=12" parent="1" target="60571a20871a0731-5" edge="1">
          <mxGeometry relative="1" as="geometry">
            <mxPoint x="1050" y="910" as="sourcePoint" />
          </mxGeometry>
        </mxCell>
        <mxCell id="2XV63R50OT4PgbaXAqAe-2" value="Object" style="rounded=0;whiteSpace=wrap;html=1;shadow=0;comic=0;labelBackgroundColor=none;strokeWidth=1;fontFamily=Verdana;fontSize=12;align=center;arcSize=50;" vertex="1" parent="1">
          <mxGeometry x="990" y="610" width="70" height="30" as="geometry" />
        </mxCell>
        <mxCell id="2XV63R50OT4PgbaXAqAe-3" value="Action" style="rounded=1;whiteSpace=wrap;html=1;shadow=0;comic=0;labelBackgroundColor=none;strokeWidth=1;fontFamily=Verdana;fontSize=12;align=center;arcSize=50;" vertex="1" parent="1">
          <mxGeometry x="960" y="690" width="100" height="30" as="geometry" />
        </mxCell>
        <mxCell id="60571a20871a0731-4" value="" style="ellipse;whiteSpace=wrap;html=1;rounded=0;shadow=0;comic=0;labelBackgroundColor=none;strokeWidth=1;fillColor=#000000;fontFamily=Verdana;fontSize=12;align=center;" parent="1" vertex="1">
          <mxGeometry x="900" y="110" width="40" height="40" as="geometry" />
        </mxCell>
        <mxCell id="2XV63R50OT4PgbaXAqAe-25" value="Вывод средств" style="swimlane;childLayout=stackLayout;resizeParent=1;resizeParentMax=0;horizontal=0;startSize=23;horizontalStack=0;html=1;swimlaneLine=1;" vertex="1" parent="1">
          <mxGeometry x="80" y="1190" width="1517" height="824" as="geometry">
            <mxRectangle x="80" y="1190" width="32" height="55" as="alternateBounds" />
          </mxGeometry>
        </mxCell>
        <mxCell id="2XV63R50OT4PgbaXAqAe-26" value="Игрок" style="swimlane;startSize=20;horizontal=0;html=1;" vertex="1" parent="2XV63R50OT4PgbaXAqAe-25">
          <mxGeometry x="23" width="1494" height="178" as="geometry">
            <mxRectangle x="20" width="1490" height="26" as="alternateBounds" />
          </mxGeometry>
        </mxCell>
        <mxCell id="2XV63R50OT4PgbaXAqAe-31" style="edgeStyle=orthogonalEdgeStyle;rounded=0;orthogonalLoop=1;jettySize=auto;html=1;" edge="1" parent="2XV63R50OT4PgbaXAqAe-26" source="2XV63R50OT4PgbaXAqAe-29" target="2XV63R50OT4PgbaXAqAe-30">
          <mxGeometry relative="1" as="geometry">
            <mxPoint x="93.9998816565244" y="83.07692307692287" as="sourcePoint" />
          </mxGeometry>
        </mxCell>
        <mxCell id="2XV63R50OT4PgbaXAqAe-29" value="" style="points=[[0.145,0.145,0],[0.5,0,0],[0.855,0.145,0],[1,0.5,0],[0.855,0.855,0],[0.5,1,0],[0.145,0.855,0],[0,0.5,0]];shape=mxgraph.bpmn.event;html=1;verticalLabelPosition=bottom;labelBackgroundColor=#ffffff;verticalAlign=top;align=center;perimeter=ellipsePerimeter;outlineConnect=0;aspect=fixed;outline=standard;symbol=general;" vertex="1" parent="2XV63R50OT4PgbaXAqAe-26">
          <mxGeometry x="45" y="58" width="50" height="50" as="geometry" />
        </mxCell>
        <mxCell id="2XV63R50OT4PgbaXAqAe-30" value="Инициирует вывод средств на рынке сбыта" style="points=[[0.25,0,0],[0.5,0,0],[0.75,0,0],[1,0.25,0],[1,0.5,0],[1,0.75,0],[0.75,1,0],[0.5,1,0],[0.25,1,0],[0,0.75,0],[0,0.5,0],[0,0.25,0]];shape=mxgraph.bpmn.task;whiteSpace=wrap;rectStyle=rounded;size=10;html=1;taskMarker=abstract;" vertex="1" parent="2XV63R50OT4PgbaXAqAe-26">
          <mxGeometry x="130" y="43" width="120" height="80" as="geometry" />
        </mxCell>
        <mxCell id="2XV63R50OT4PgbaXAqAe-34" value="Подписывает и отправляет транзакцию к смарт-контаркту" style="points=[[0.25,0,0],[0.5,0,0],[0.75,0,0],[1,0.25,0],[1,0.5,0],[1,0.75,0],[0.75,1,0],[0.5,1,0],[0.25,1,0],[0,0.75,0],[0,0.5,0],[0,0.25,0]];shape=mxgraph.bpmn.task;whiteSpace=wrap;rectStyle=rounded;size=10;html=1;taskMarker=abstract;" vertex="1" parent="2XV63R50OT4PgbaXAqAe-26">
          <mxGeometry x="307" y="43" width="120" height="80" as="geometry" />
        </mxCell>
        <mxCell id="2XV63R50OT4PgbaXAqAe-61" style="edgeStyle=orthogonalEdgeStyle;rounded=0;orthogonalLoop=1;jettySize=auto;html=1;" edge="1" parent="2XV63R50OT4PgbaXAqAe-26" source="2XV63R50OT4PgbaXAqAe-30" target="2XV63R50OT4PgbaXAqAe-34">
          <mxGeometry relative="1" as="geometry" />
        </mxCell>
        <mxCell id="2XV63R50OT4PgbaXAqAe-39" value="Смарт-контракт" style="swimlane;startSize=20;horizontal=0;html=1;" vertex="1" parent="2XV63R50OT4PgbaXAqAe-25">
          <mxGeometry x="23" y="178" width="1494" height="131" as="geometry" />
        </mxCell>
        <mxCell id="2XV63R50OT4PgbaXAqAe-45" value="" style="points=[[0.145,0.145,0],[0.5,0,0],[0.855,0.145,0],[1,0.5,0],[0.855,0.855,0],[0.5,1,0],[0.145,0.855,0],[0,0.5,0]];shape=mxgraph.bpmn.event;html=1;verticalLabelPosition=bottom;labelBackgroundColor=#ffffff;verticalAlign=top;align=center;perimeter=ellipsePerimeter;outlineConnect=0;aspect=fixed;outline=throwing;symbol=message;" vertex="1" parent="2XV63R50OT4PgbaXAqAe-39">
          <mxGeometry x="342" y="40.5" width="50" height="50" as="geometry" />
        </mxCell>
        <mxCell id="2XV63R50OT4PgbaXAqAe-16" value="" style="points=[[0.145,0.145,0],[0.5,0,0],[0.855,0.145,0],[1,0.5,0],[0.855,0.855,0],[0.5,1,0],[0.145,0.855,0],[0,0.5,0]];shape=mxgraph.bpmn.event;html=1;verticalLabelPosition=bottom;labelBackgroundColor=#ffffff;verticalAlign=top;align=center;perimeter=ellipsePerimeter;outlineConnect=0;aspect=fixed;outline=end;symbol=terminate2;" vertex="1" parent="2XV63R50OT4PgbaXAqAe-39">
          <mxGeometry x="1395" y="34" width="50" height="50" as="geometry" />
        </mxCell>
        <mxCell id="2XV63R50OT4PgbaXAqAe-54" value="" style="points=[[0.145,0.145,0],[0.5,0,0],[0.855,0.145,0],[1,0.5,0],[0.855,0.855,0],[0.5,1,0],[0.145,0.855,0],[0,0.5,0]];shape=mxgraph.bpmn.event;html=1;verticalLabelPosition=bottom;labelBackgroundColor=#ffffff;verticalAlign=top;align=center;perimeter=ellipsePerimeter;outlineConnect=0;aspect=fixed;outline=catching;symbol=message;" vertex="1" parent="2XV63R50OT4PgbaXAqAe-39">
          <mxGeometry x="629" y="40.5" width="50" height="50" as="geometry" />
        </mxCell>
        <mxCell id="2XV63R50OT4PgbaXAqAe-53" style="edgeStyle=orthogonalEdgeStyle;rounded=0;orthogonalLoop=1;jettySize=auto;html=1;entryX=0.5;entryY=1;entryDx=0;entryDy=0;entryPerimeter=0;" edge="1" parent="2XV63R50OT4PgbaXAqAe-25" target="2XV63R50OT4PgbaXAqAe-52">
          <mxGeometry relative="1" as="geometry">
            <mxPoint x="794" y="525" as="sourcePoint" />
          </mxGeometry>
        </mxCell>
        <mxCell id="2XV63R50OT4PgbaXAqAe-55" style="edgeStyle=orthogonalEdgeStyle;rounded=0;orthogonalLoop=1;jettySize=auto;html=1;entryX=0.5;entryY=1;entryDx=0;entryDy=0;entryPerimeter=0;" edge="1" parent="2XV63R50OT4PgbaXAqAe-25" source="2XV63R50OT4PgbaXAqAe-52" target="2XV63R50OT4PgbaXAqAe-54">
          <mxGeometry relative="1" as="geometry" />
        </mxCell>
        <mxCell id="2XV63R50OT4PgbaXAqAe-49" style="edgeStyle=orthogonalEdgeStyle;rounded=0;orthogonalLoop=1;jettySize=auto;html=1;" edge="1" parent="2XV63R50OT4PgbaXAqAe-25" source="2XV63R50OT4PgbaXAqAe-45" target="2XV63R50OT4PgbaXAqAe-48">
          <mxGeometry relative="1" as="geometry" />
        </mxCell>
        <mxCell id="2XV63R50OT4PgbaXAqAe-36" value="Collab-land" style="swimlane;startSize=20;horizontal=0;html=1;" vertex="1" parent="2XV63R50OT4PgbaXAqAe-25">
          <mxGeometry x="23" y="309" width="1494" height="147" as="geometry" />
        </mxCell>
        <mxCell id="2XV63R50OT4PgbaXAqAe-48" value="" style="points=[[0.145,0.145,0],[0.5,0,0],[0.855,0.145,0],[1,0.5,0],[0.855,0.855,0],[0.5,1,0],[0.145,0.855,0],[0,0.5,0]];shape=mxgraph.bpmn.event;html=1;verticalLabelPosition=bottom;labelBackgroundColor=#ffffff;verticalAlign=top;align=center;perimeter=ellipsePerimeter;outlineConnect=0;aspect=fixed;outline=throwing;symbol=message;" vertex="1" parent="2XV63R50OT4PgbaXAqAe-36">
          <mxGeometry x="342" y="45" width="50" height="50" as="geometry" />
        </mxCell>
        <mxCell id="2XV63R50OT4PgbaXAqAe-52" value="" style="points=[[0.145,0.145,0],[0.5,0,0],[0.855,0.145,0],[1,0.5,0],[0.855,0.855,0],[0.5,1,0],[0.145,0.855,0],[0,0.5,0]];shape=mxgraph.bpmn.event;html=1;verticalLabelPosition=bottom;labelBackgroundColor=#ffffff;verticalAlign=top;align=center;perimeter=ellipsePerimeter;outlineConnect=0;aspect=fixed;outline=catching;symbol=message;" vertex="1" parent="2XV63R50OT4PgbaXAqAe-36">
          <mxGeometry x="630" y="41" width="50" height="50" as="geometry" />
        </mxCell>
        <mxCell id="2XV63R50OT4PgbaXAqAe-42" style="edgeStyle=orthogonalEdgeStyle;rounded=0;orthogonalLoop=1;jettySize=auto;html=1;" edge="1" parent="2XV63R50OT4PgbaXAqAe-25" source="2XV63R50OT4PgbaXAqAe-34" target="2XV63R50OT4PgbaXAqAe-45">
          <mxGeometry relative="1" as="geometry">
            <mxPoint x="643" y="203.5" as="targetPoint" />
          </mxGeometry>
        </mxCell>
        <mxCell id="2XV63R50OT4PgbaXAqAe-27" value="Система" style="swimlane;startSize=20;horizontal=0;html=1;" vertex="1" parent="2XV63R50OT4PgbaXAqAe-25">
          <mxGeometry x="23" y="456" width="1494" height="237" as="geometry" />
        </mxCell>
        <mxCell id="2XV63R50OT4PgbaXAqAe-33" value="Рассчитывает количество токена TREE&amp;nbsp;" style="points=[[0.25,0,0],[0.5,0,0],[0.75,0,0],[1,0.25,0],[1,0.5,0],[1,0.75,0],[0.75,1,0],[0.5,1,0],[0.25,1,0],[0,0.75,0],[0,0.5,0],[0,0.25,0]];shape=mxgraph.bpmn.task;whiteSpace=wrap;rectStyle=rounded;size=10;html=1;taskMarker=abstract;" vertex="1" parent="2XV63R50OT4PgbaXAqAe-27">
          <mxGeometry x="857" y="25" width="120" height="80" as="geometry" />
        </mxCell>
        <mxCell id="2XV63R50OT4PgbaXAqAe-65" value="Проверяет наличие статуса &quot;платный&quot;" style="points=[[0.25,0,0],[0.5,0,0],[0.75,0,0],[1,0.25,0],[1,0.5,0],[1,0.75,0],[0.75,1,0],[0.5,1,0],[0.25,1,0],[0,0.75,0],[0,0.5,0],[0,0.25,0]];shape=mxgraph.bpmn.task;whiteSpace=wrap;rectStyle=rounded;size=10;html=1;taskMarker=abstract;" vertex="1" parent="2XV63R50OT4PgbaXAqAe-27">
          <mxGeometry x="307" y="29" width="120" height="80" as="geometry" />
        </mxCell>
        <mxCell id="2XV63R50OT4PgbaXAqAe-60" value="Игрок &quot;платный&quot;?" style="points=[[0.25,0.25,0],[0.5,0,0],[0.75,0.25,0],[1,0.5,0],[0.75,0.75,0],[0.5,1,0],[0.25,0.75,0],[0,0.5,0]];shape=mxgraph.bpmn.gateway2;html=1;verticalLabelPosition=bottom;labelBackgroundColor=#ffffff;verticalAlign=top;align=center;perimeter=rhombusPerimeter;outlineConnect=0;outline=none;symbol=none;gwType=exclusive;labelPosition=center;" vertex="1" parent="2XV63R50OT4PgbaXAqAe-27">
          <mxGeometry x="471" y="44" width="50" height="50" as="geometry" />
        </mxCell>
        <mxCell id="2XV63R50OT4PgbaXAqAe-66" style="edgeStyle=orthogonalEdgeStyle;rounded=0;orthogonalLoop=1;jettySize=auto;html=1;" edge="1" parent="2XV63R50OT4PgbaXAqAe-27" source="2XV63R50OT4PgbaXAqAe-65" target="2XV63R50OT4PgbaXAqAe-60">
          <mxGeometry relative="1" as="geometry" />
        </mxCell>
        <mxCell id="2XV63R50OT4PgbaXAqAe-62" value="Рассчитывает количество токена TREE&amp;nbsp;" style="points=[[0.25,0,0],[0.5,0,0],[0.75,0,0],[1,0.25,0],[1,0.5,0],[1,0.75,0],[0.75,1,0],[0.5,1,0],[0.25,1,0],[0,0.75,0],[0,0.5,0],[0,0.25,0]];shape=mxgraph.bpmn.task;whiteSpace=wrap;rectStyle=rounded;size=10;html=1;taskMarker=abstract;" vertex="1" parent="2XV63R50OT4PgbaXAqAe-27">
          <mxGeometry x="602" y="29" width="120" height="80" as="geometry" />
        </mxCell>
        <mxCell id="2XV63R50OT4PgbaXAqAe-63" style="edgeStyle=orthogonalEdgeStyle;rounded=0;orthogonalLoop=1;jettySize=auto;html=1;" edge="1" parent="2XV63R50OT4PgbaXAqAe-27" source="2XV63R50OT4PgbaXAqAe-60" target="2XV63R50OT4PgbaXAqAe-62">
          <mxGeometry relative="1" as="geometry" />
        </mxCell>
        <mxCell id="2XV63R50OT4PgbaXAqAe-28" value="KYC-сервис" style="swimlane;startSize=20;horizontal=0;html=1;" vertex="1" parent="2XV63R50OT4PgbaXAqAe-25">
          <mxGeometry x="23" y="693" width="1494" height="131" as="geometry" />
        </mxCell>
        <mxCell id="2XV63R50OT4PgbaXAqAe-56" value="Производит аутентификацию пользоватеоля" style="points=[[0.25,0,0],[0.5,0,0],[0.75,0,0],[1,0.25,0],[1,0.5,0],[1,0.75,0],[0.75,1,0],[0.5,1,0],[0.25,1,0],[0,0.75,0],[0,0.5,0],[0,0.25,0]];shape=mxgraph.bpmn.task;whiteSpace=wrap;rectStyle=rounded;size=10;html=1;taskMarker=abstract;" vertex="1" parent="2XV63R50OT4PgbaXAqAe-28">
          <mxGeometry x="857" y="25.5" width="120" height="80" as="geometry" />
        </mxCell>
        <mxCell id="2XV63R50OT4PgbaXAqAe-68" value="" style="edgeStyle=orthogonalEdgeStyle;rounded=0;orthogonalLoop=1;jettySize=auto;html=1;" edge="1" parent="2XV63R50OT4PgbaXAqAe-25" source="2XV63R50OT4PgbaXAqAe-48" target="2XV63R50OT4PgbaXAqAe-65">
          <mxGeometry relative="1" as="geometry" />
        </mxCell>
        <mxCell id="2XV63R50OT4PgbaXAqAe-57" style="edgeStyle=orthogonalEdgeStyle;rounded=0;orthogonalLoop=1;jettySize=auto;html=1;" edge="1" parent="2XV63R50OT4PgbaXAqAe-25" source="2XV63R50OT4PgbaXAqAe-33" target="2XV63R50OT4PgbaXAqAe-56">
          <mxGeometry relative="1" as="geometry" />
        </mxCell>
        <mxCell id="2XV63R50OT4PgbaXAqAe-67" style="edgeStyle=orthogonalEdgeStyle;rounded=0;orthogonalLoop=1;jettySize=auto;html=1;exitX=0.5;exitY=1;exitDx=0;exitDy=0;exitPerimeter=0;" edge="1" parent="1" source="2XV63R50OT4PgbaXAqAe-60">
          <mxGeometry relative="1" as="geometry">
            <mxPoint x="599" y="1828" as="targetPoint" />
          </mxGeometry>
        </mxCell>
      </root>
    </mxGraphModel>
  </diagram>
</mxfile>
